/* XPM */
static char *texture[] = {
"64 64 3 1",
"  c #FF0000",
". c #FFFFFF",
"x c #000000",
"                ................xxxxxxxxxxxxxxxx................",
"                ................xxxxxxxxxxxxxxxx................",
"                ................xxxxxxxxxxxxxxxx................",
"                ................xxxxxxxxxxxxxxxx................",
"                ................xxxxxxxxxxxxxxxx................",
"                ................xxxxxxxxxxxxxxxx................",
"                ................xxxxxxxxxxxxxxxx................",
"                ................xxxxxxxxxxxxxxxx................",
"xxxxxxxxxxxxxxxx................xxxxxxxxxxxxxxxx................",
"xxxxxxxxxxxxxxxx................xxxxxxxxxxxxxxxx................",
"xxxxxxxxxxxxxxxx................xxxxxxxxxxxxxxxx................",
"xxxxxxxxxxxxxxxx................xxxxxxxxxxxxxxxx................",
"xxxxxxxxxxxxxxxx................xxxxxxxxxxxxxxxx................",
"xxxxxxxxxxxxxxxx................xxxxxxxxxxxxxxxx................",
"xxxxxxxxxxxxxxxx................xxxxxxxxxxxxxxxx................",
"xxxxxxxxxxxxxxxx................xxxxxxxxxxxxxxxx................",
"................xxxxxxxxxxxxxxxx................xxxxxxxxxxxxxxxx",
"................xxxxxxxxxxxxxxxx................xxxxxxxxxxxxxxxx",
"................xxxxxxxxxxxxxxxx................xxxxxxxxxxxxxxxx",
"................xxxxxxxxxxxxxxxx................xxxxxxxxxxxxxxxx",
"................xxxxxxxxxxxxxxxx................xxxxxxxxxxxxxxxx",
"................xxxxxxxxxxxxxxxx................xxxxxxxxxxxxxxxx",
"................xxxxxxxxxxxxxxxx................xxxxxxxxxxxxxxxx",
"................xxxxxxxxxxxxxxxx................xxxxxxxxxxxxxxxx",
"xxxxxxxxxxxxxxxx................xxxxxxxxxxxxxxxx................",
"xxxxxxxxxxxxxxxx................xxxxxxxxxxxxxxxx................",
"xxxxxxxxxxxxxxxx................xxxxxxxxxxxxxxxx................",
"xxxxxxxxxxxxxxxx................xxxxxxxxxxxxxxxx................",
"xxxxxxxxxxxxxxxx................xxxxxxxxxxxxxxxx................",
"xxxxxxxxxxxxxxxx................xxxxxxxxxxxxxxxx................",
"xxxxxxxxxxxxxxxx................xxxxxxxxxxxxxxxx................",
"xxxxxxxxxxxxxxxx................xxxxxxxxxxxxxxxx................",
"................xxxxxxxxxxxxxxxx................xxxxxxxxxxxxxxxx",
"................xxxxxxxxxxxxxxxx................xxxxxxxxxxxxxxxx",
"................xxxxxxxxxxxxxxxx................xxxxxxxxxxxxxxxx",
"................xxxxxxxxxxxxxxxx................xxxxxxxxxxxxxxxx",
"................xxxxxxxxxxxxxxxx................xxxxxxxxxxxxxxxx",
"................xxxxxxxxxxxxxxxx................xxxxxxxxxxxxxxxx",
"................xxxxxxxxxxxxxxxx................xxxxxxxxxxxxxxxx",
"................xxxxxxxxxxxxxxxx................xxxxxxxxxxxxxxxx",
"xxxxxxxxxxxxxxxx................xxxxxxxxxxxxxxxx................",
"xxxxxxxxxxxxxxxx................xxxxxxxxxxxxxxxx................",
"xxxxxxxxxxxxxxxx................xxxxxxxxxxxxxxxx................",
"xxxxxxxxxxxxxxxx................xxxxxxxxxxxxxxxx................",
"xxxxxxxxxxxxxxxx................xxxxxxxxxxxxxxxx................",
"xxxxxxxxxxxxxxxx................xxxxxxxxxxxxxxxx................",
"xxxxxxxxxxxxxxxx................xxxxxxxxxxxxxxxx................",
"xxxxxxxxxxxxxxxx................xxxxxxxxxxxxxxxx................",
"................xxxxxxxxxxxxxxxx................xxxxxxxxxxxxxxxx",
"................xxxxxxxxxxxxxxxx................xxxxxxxxxxxxxxxx",
"................xxxxxxxxxxxxxxxx................xxxxxxxxxxxxxxxx",
"................xxxxxxxxxxxxxxxx................xxxxxxxxxxxxxxxx",
"................xxxxxxxxxxxxxxxx................xxxxxxxxxxxxxxxx",
"................xxxxxxxxxxxxxxxx................xxxxxxxxxxxxxxxx",
"................xxxxxxxxxxxxxxxx................xxxxxxxxxxxxxxxx",
"................xxxxxxxxxxxxxxxx................xxxxxxxxxxxxxxxx",
"xxxxxxxxxxxxxxxx................xxxxxxxxxxxxxxxx................",
"xxxxxxxxxxxxxxxx................xxxxxxxxxxxxxxxx................",
"xxxxxxxxxxxxxxxx................xxxxxxxxxxxxxxxx................",
"xxxxxxxxxxxxxxxx................xxxxxxxxxxxxxxxx................",
"xxxxxxxxxxxxxxxx................xxxxxxxxxxxxxxxx................",
"xxxxxxxxxxxxxxxx................xxxxxxxxxxxxxxxx................",
"xxxxxxxxxxxxxxxx................xxxxxxxxxxxxxxxx................",
"xxxxxxxxxxxxxxxx................xxxxxxxxxxxxxxxx................"
};